<?xml version="1.0" encoding="UTF-8"?>
<!--
  RoboLearn icon (robot mark) extracted from the website navbar.
  Use this SVG directly in slides, or convert to PNG if needed.
-->
<svg xmlns="http://www.w3.org/2000/svg" width="512" height="512" viewBox="0 0 24 24" fill="none">
  <path
    d="M9 4.5a3 3 0 0 1 6 0V6h2.2a3.8 3.8 0 0 1 3.8 3.8V14a6.5 6.5 0 0 1-6.5 6.5h-5A6.5 6.5 0 0 1 3 14V9.8A3.8 3.8 0 0 1 6.8 6H9V4.5Z"
    stroke="rgba(255,255,255,0.9)"
    stroke-width="1.5"
  />
  <path d="M8.5 11a1 1 0 1 0 0.001 0Z" fill="rgba(96,165,250,0.95)" />
  <path d="M15.5 11a1 1 0 1 0 0.001 0Z" fill="rgba(96,165,250,0.95)" />
  <path
    d="M9 16.1c.9.8 1.9 1.2 3 1.2s2.1-.4 3-1.2"
    stroke="rgba(255,255,255,0.85)"
    stroke-width="1.5"
    stroke-linecap="round"
  />
</svg>

